# xmcd CD database file
#
# Track frame offsets:
#	150
#	20137
#	35180
#	67240
#
# Disc length: 1973 seconds
#
# Revision: 2
# Processed by: cddbd v1.5.1PL0 Copyright (c) Steve Scherf et al.
# Submitted via: CDex 1.51
#
DISCID=3c07b304
DTITLE=Texas - In Demand
DYEAR=2002
DGENRE=Acapella
TTITLE0=In Demand
TTITLE1=Early Hours
TTITLE2=Like Lovers (Holding On)
TTITLE3=interactive
EXTD=YEAR: 2002
EXTT0=
EXTT1=
EXTT2=
EXTT3=
PLAYORDER=
